<svg id="Layer_1" data-name="Layer 1" xmlns="http://www.w3.org/2000/svg" viewBox="0 0 295.45 782.99"><title>sprinkles</title><g id="group12"><rect id="_Rectangle_" data-name="&lt;Rectangle&gt;" x="199.92" y="760.24" width="45.95" height="14.74" rx="6.15" ry="6.15" transform="translate(33.76 -9.01) rotate(2.5)" style="fill:#fdeb00"/><rect id="piece" x="143.84" y="742.51" width="45.95" height="14.74" rx="6.15" ry="6.15" transform="translate(-528.18 422.58) rotate(-52.24)" style="fill:#37b34a"/><rect id="piece-2" data-name="piece" x="246.32" y="718.04" width="51.76" height="18.78" rx="7.83" ry="7.83" transform="translate(-96.99 1410.76) rotate(-131.1)" style="fill:#34c4ec"/></g><g id="group11"><rect id="piece-3" data-name="piece" x="94.78" y="724.32" width="45.95" height="14.74" rx="6.15" ry="6.15" transform="translate(427.74 58.53) rotate(33.87)" style="fill:#fdeb00"/><path id="piece-4" data-name="piece" d="M44.33,739.81L62,770.1a7.56,7.56,0,0,1-2.81,10.37L56.58,782a7.76,7.76,0,0,1-10.5-2.78L28.37,748.91a7.56,7.56,0,0,1,2.81-10.37L33.83,737A7.76,7.76,0,0,1,44.33,739.81Z" style="fill:#34c4ec"/></g><g id="group10"><rect id="piece-5" data-name="piece" x="142.01" y="167.46" width="45.95" height="14.74" rx="6.15" ry="6.15" transform="translate(-53.47 275.16) rotate(-71.33)" style="fill:#fdeb00"/><rect id="piece-6" data-name="piece" x="196.93" y="246.26" width="45.95" height="14.74" rx="6.15" ry="6.15" transform="translate(11.29 -9.37) rotate(2.5)" style="fill:#fdeb00"/><rect id="piece-7" data-name="piece" x="258.56" y="189.55" width="45.95" height="14.74" rx="6.15" ry="6.15" transform="translate(573.7 16.15) rotate(113.28)" style="fill:#5cb947"/><rect id="piece-8" data-name="piece" x="202.95" y="200.8" width="45.95" height="14.74" rx="6.15" ry="6.15" transform="translate(532.09 182.86) rotate(132.62)" style="fill:#f6921e"/><rect id="piece-9" data-name="piece" x="196.93" y="144.99" width="45.95" height="14.74" rx="6.15" ry="6.15" transform="translate(-21.99 266.62) rotate(-60)" style="fill:#37b34a"/><rect id="piece-10" data-name="piece" x="132.28" y="232.41" width="51.76" height="18.78" rx="7.83" ry="7.83" transform="translate(79.94 519.94) rotate(-131.1)" style="fill:#34c4ec"/><rect id="piece-11" data-name="piece" x="249.63" y="266.72" width="45.95" height="14.74" rx="6.15" ry="6.15" transform="translate(211.53 655.81) rotate(-126.07)" style="fill:#f49ec0"/></g><g id="group9"><rect id="piece-12" data-name="piece" x="96.87" y="593.97" width="51.76" height="18.78" rx="7.83" ry="7.83" transform="translate(-251.2 1092.52) rotate(-131.1)" style="fill:#34c4ec"/><rect id="piece-13" data-name="piece" x="8.96" y="661.86" width="45.95" height="14.74" rx="6.15" ry="6.15" transform="translate(659.28 904.44) rotate(113.28)" style="fill:#5cb947"/><rect id="piece-14" data-name="piece" x="55.52" y="616.7" width="45.95" height="14.74" rx="6.15" ry="6.15" transform="translate(-422.72 1004.08) rotate(-120)" style="fill:#f6921e"/><rect id="piece-15" data-name="piece" x="82.37" y="682.69" width="45.95" height="14.74" rx="6.15" ry="6.15" transform="matrix(0.75, -0.66, 0.66, 0.75, -429.11, 241.02)" style="fill:#f49ec0"/><rect id="piece-16" data-name="piece" x="3.92" y="574.25" width="45.95" height="14.74" rx="6.15" ry="6.15" transform="translate(-505.53 345.98) rotate(-63.48)" style="fill:#f49ec0"/></g><g id="group8"><rect id="piece-17" data-name="piece" x="239.42" y="478.32" width="45.95" height="14.74" rx="6.15" ry="6.15" transform="matrix(-0.92, -0.4, 0.4, -0.92, 311.42, 1035.55)" style="fill:#f49ec0"/><path id="piece-18" data-name="piece" d="M184.66,484.24l14-32.13a7.75,7.75,0,0,1,10.1-4l2.81,1.19a7.57,7.57,0,0,1,4,10l-14,32.13a7.75,7.75,0,0,1-10.1,4l-2.81-1.19A7.57,7.57,0,0,1,184.66,484.24Z" style="fill:#34c4ec"/><rect id="piece-19" data-name="piece" x="256.93" y="552.5" width="45.95" height="14.74" rx="6.15" ry="6.15" transform="translate(-314.8 755.13) rotate(-81.61)" style="fill:#34c4ec"/><rect id="piece-20" data-name="piece" x="145.01" y="531.21" width="45.95" height="14.74" rx="6.15" ry="6.15" transform="translate(-308.39 840.82) rotate(-105.07)" style="fill:#f49ec0"/><rect id="piece-21" data-name="piece" x="208.35" y="517.67" width="45.95" height="14.74" rx="6.15" ry="6.15" transform="translate(-70.05 36.83) rotate(-7.91)" style="fill:#37b34a"/></g><g id="group7"><rect id="piece-22" data-name="piece" x="38.88" y="470.83" width="45.95" height="14.74" rx="6.15" ry="6.15" transform="translate(-367.88 259.51) rotate(-55.66)" style="fill:#f49ec0"/><rect id="piece-23" data-name="piece" x="96.87" y="476.3" width="51.76" height="18.78" rx="7.83" ry="7.83" transform="translate(-375.65 536.29) rotate(-81.61)" style="fill:#f6921e"/><rect id="piece-24" data-name="piece" x="70.43" y="552.16" width="45.95" height="14.74" rx="6.15" ry="6.15" transform="translate(-457.48 424.15) rotate(-66.72)" style="fill:#fdeb00"/><rect id="piece-25" data-name="piece" x="21.61" y="517.67" width="45.95" height="14.74" rx="6.15" ry="6.15" transform="translate(-8.31 1049.3) rotate(-169.38)" style="fill:#34c4ec"/></g><g id="group6"><rect id="piece-26" data-name="piece" x="221.39" y="418.28" width="45.95" height="14.74" rx="6.15" ry="6.15" transform="matrix(0.15, -0.99, 0.99, 0.15, -212.38, 605.32)" style="fill:#f6921e"/><path id="piece-27" data-name="piece" d="M285.85,367.47L292,402.15a7.54,7.54,0,0,1-6.19,8.77l-3,.49a7.78,7.78,0,0,1-8.87-6.28l-6.18-34.68a7.54,7.54,0,0,1,6.19-8.77l3-.49A7.78,7.78,0,0,1,285.85,367.47Z" style="fill:#34c4ec"/><rect id="piece-28" data-name="piece" x="249.63" y="316.15" width="45.95" height="14.74" rx="6.15" ry="6.15" transform="translate(226.55 -97.03) rotate(33.87)" style="fill:#fdeb00"/><rect id="piece-29" data-name="piece" x="184.52" y="389.16" width="45.95" height="14.74" rx="6.15" ry="6.15" transform="translate(-189.03 604.02) rotate(-90)" style="fill:#fdeb00"/><rect id="piece-30" data-name="piece" x="196.93" y="305.76" width="45.95" height="14.74" rx="6.15" ry="6.15" transform="translate(-162.32 295.24) rotate(-52.24)" style="fill:#f49ec0"/><rect id="piece-31" data-name="piece" x="135.19" y="389.16" width="45.95" height="14.74" rx="6.15" ry="6.15" transform="translate(-106.16 731.77) rotate(-120)" style="fill:#37b34a"/></g><g id="group5"><rect id="piece-32" data-name="piece" x="122.09" y="305.68" width="50.06" height="16.06" rx="6.7" ry="6.7" transform="matrix(-0.78, -0.62, 0.62, -0.78, 68.12, 651.07)" style="fill:#34c4ec"/><rect id="piece-33" data-name="piece" x="80.24" y="402.47" width="45.95" height="14.74" rx="6.15" ry="6.15" transform="translate(-317.3 452.18) rotate(-81.61)" style="fill:#34c4ec"/><rect id="piece-34" data-name="piece" x="-1.24" y="333.19" width="45.95" height="14.74" rx="6.15" ry="6.15" transform="translate(-292.7 207.94) rotate(-63.48)" style="fill:#f49ec0"/><rect id="piece-35" data-name="piece" x="66.61" y="353.72" width="45.95" height="14.74" rx="6.15" ry="6.15" transform="translate(-109.92 47.07) rotate(-18.5)" style="fill:#37b34a"/><rect id="piece-36" data-name="piece" x="75.71" y="285.21" width="51.76" height="18.78" rx="7.83" ry="7.83" transform="matrix(0.15, -0.99, 0.99, 0.15, -204.68, 352.14)" style="fill:#f6921e"/><rect id="piece-37" data-name="piece" x="17.42" y="418.28" width="45.95" height="14.74" rx="6.15" ry="6.15" transform="translate(-340.23 620.45) rotate(-111.68)" style="fill:#fdeb00"/><rect id="piece-38" data-name="piece" x="9.81" y="275.14" width="45.95" height="14.74" rx="6.15" ry="6.15" transform="translate(-180.18 471) rotate(-124.89)" style="fill:#37b34a"/></g><g id="group4"><rect id="piece-39" data-name="piece" x="-2.18" y="220.15" width="45.95" height="14.74" rx="6.15" ry="6.15" transform="translate(130.32 27.02) rotate(33.87)" style="fill:#fdeb00"/><rect id="piece-40" data-name="piece" x="82.37" y="214.24" width="45.95" height="14.74" rx="6.15" ry="6.15" transform="translate(-134.36 169.19) rotate(-52.24)" style="fill:#37b34a"/><path id="piece-41" data-name="piece" d="M49.78,170.28l17.72,30.29a7.56,7.56,0,0,1-2.81,10.37L62,212.45a7.76,7.76,0,0,1-10.5-2.78L33.81,179.38A7.56,7.56,0,0,1,36.62,169l2.65-1.51A7.76,7.76,0,0,1,49.78,170.28Z" style="fill:#34c4ec"/><rect id="piece-42" data-name="piece" x="60.62" y="138.8" width="45.95" height="14.74" rx="6.15" ry="6.15" transform="translate(93.13 314.28) rotate(-153.48)" style="fill:#f49ec0"/></g><g id="group3"><rect id="piece-43" data-name="piece" x="181.64" y="626.2" width="45.95" height="14.74" rx="6.15" ry="6.15" transform="translate(-98.7 1226.26) rotate(-135)" style="fill:#f49ec0"/><rect id="piece-44" data-name="piece" x="142.01" y="682.69" width="45.95" height="14.74" rx="6.15" ry="6.15" transform="translate(-318.54 1209.3) rotate(-123.59)" style="fill:#f6921e"/><rect id="piece-45" data-name="piece" x="229.61" y="638.03" width="45.95" height="14.74" rx="6.15" ry="6.15" transform="translate(-432.64 541.44) rotate(-60)" style="fill:#37b34a"/><rect id="piece-46" data-name="piece" x="185.37" y="574.25" width="45.95" height="14.74" rx="6.15" ry="6.15" transform="translate(-21.48 8.15) rotate(-2.13)" style="fill:#fdeb00"/></g><g id="group2"><rect id="piece-47" data-name="piece" x="239.42" y="123.56" width="45.95" height="14.74" rx="6.15" ry="6.15" transform="translate(94.59 371.42) rotate(-81.61)" style="fill:#34c4ec"/><rect id="piece-48" data-name="piece" x="226.7" y="15.34" width="45.95" height="14.74" rx="6.15" ry="6.15" transform="translate(292.66 269.71) rotate(-105.07)" style="fill:#f49ec0"/><rect id="piece-49" data-name="piece" x="160.63" y="36.67" width="45.95" height="14.74" rx="6.15" ry="6.15" transform="translate(-4.31 25.68) rotate(-7.91)" style="fill:#37b34a"/><rect id="piece-50" data-name="piece" x="183.61" y="85.84" width="45.95" height="14.74" rx="6.15" ry="6.15" transform="translate(349.81 268.85) rotate(-153.48)" style="fill:#f49ec0"/><rect id="piece-51" data-name="piece" x="244.64" y="70.87" width="45.95" height="14.74" rx="6.15" ry="6.15" transform="matrix(-0.84, -0.55, 0.55, -0.84, 448.19, 290.69)" style="fill:#fdeb00"/></g><g id="group1"><rect id="piece-52" data-name="piece" x="106.17" y="91.3" width="51.76" height="18.78" rx="7.83" ry="7.83" transform="translate(142.99 266.39) rotate(-131.1)" style="fill:#34c4ec"/><rect id="piece-53" data-name="piece" x="92.53" y="16.1" width="45.95" height="14.74" rx="6.15" ry="6.15" transform="translate(208.47 95.94) rotate(-153.55)" style="fill:#fdeb00"/><rect id="piece-54" data-name="piece" x="-11.99" y="123.56" width="45.95" height="14.74" rx="6.15" ry="6.15" transform="translate(-120.15 122.7) rotate(-81.61)" style="fill:#34c4ec"/><rect id="piece-55" data-name="piece" x="48.97" y="70.87" width="45.95" height="14.74" rx="6.15" ry="6.15" transform="translate(40.16 179.67) rotate(-120)" style="fill:#f6921e"/><rect id="piece-56" data-name="piece" x="26.59" y="17.23" width="45.95" height="14.74" rx="6.15" ry="6.15" transform="translate(5.42 57.96) rotate(-63.48)" style="fill:#f49ec0"/></g></svg>